<?xml version="1.0" standalone="no"?>
<!DOCTYPE svg PUBLIC "-//W3C//DTD SVG 20010904//EN"
 "http://www.w3.org/TR/2001/REC-SVG-20010904/DTD/svg10.dtd">
<svg version="1.0" xmlns="http://www.w3.org/2000/svg"
 width="1000.000000pt" height="1000.000000pt" viewBox="0 0 1000.000000 1000.000000"
 preserveAspectRatio="xMidYMid meet">
<metadata>
Created by potrace 1.14, written by Peter Selinger 2001-2017
</metadata>
<g transform="translate(0.000000,1000.000000) scale(0.100000,-0.100000)"
fill="#000000" stroke="none">
<path d="M799 7868 c-2 -13 -2 -43 1 -67 l5 -44 45 -4 c212 -14 315 -58 367
-156 43 -82 43 -75 42 -1502 -1 -1522 2 -1446 -69 -1528 -22 -25 -60 -53 -87
-65 -48 -20 -181 -48 -258 -54 -46 -3 -52 -14 -47 -88 l4 -50 889 0 c489 0
890 3 890 8 7 37 3 115 -6 121 -5 5 -37 11 -70 15 -128 14 -244 54 -302 105
-34 29 -70 109 -78 174 -3 32 -7 297 -7 590 l0 532 72 67 73 66 409 -511 c225
-282 417 -521 426 -532 66 -78 203 -258 225 -296 17 -29 27 -60 27 -85 -1 -87
-41 -101 -335 -119 -33 -2 -65 -4 -71 -4 -7 -1 -11 -24 -11 -66 l1 -65 892 0
891 0 -3 63 c-1 34 -2 65 -3 68 -1 3 -11 5 -23 4 -35 -4 -127 23 -162 47 -45
30 -54 41 -236 268 -91 113 -167 207 -170 210 -3 3 -109 133 -235 290 -126
157 -235 292 -242 300 -7 8 -56 69 -109 135 -52 66 -103 129 -112 140 -10 11
-35 43 -57 70 -21 28 -42 52 -46 55 -3 3 -21 25 -40 50 -19 25 -44 56 -56 70
-19 22 -353 438 -375 466 -12 17 587 618 792 794 41 36 77 68 80 71 3 3 41 32
85 66 128 97 241 161 370 211 65 25 252 61 340 66 18 1 20 9 23 69 l3 67 -766
0 -766 0 3 -67 c3 -67 3 -68 33 -69 149 -6 310 -31 357 -55 44 -23 62 -69 55
-140 -10 -91 35 -41 -824 -906 l-513 -515 0 53 c-3 433 0 1148 5 1194 28 270
117 348 425 369 l35 2 3 67 3 67 -894 0 -895 0 -3 -22z"/>
<path d="M4190 6442 l0 -68 33 -2 c76 -6 175 -50 218 -99 51 -58 70 -103 193
-453 169 -484 198 -565 249 -710 31 -85 99 -279 152 -430 203 -577 385 -1092
425 -1205 16 -44 71 -201 123 -350 l95 -270 75 -3 c54 -2 76 1 80 10 9 22 320
819 426 1093 56 143 105 269 110 280 11 23 191 485 195 500 2 6 8 21 13 35 6
14 43 108 82 210 39 102 76 194 81 205 5 11 23 57 41 103 17 46 32 82 34 80 2
-2 38 -100 80 -218 42 -118 81 -228 88 -245 6 -16 12 -32 13 -35 0 -3 4 -12 7
-20 6 -15 186 -516 292 -815 30 -82 84 -233 120 -335 37 -102 89 -248 117
-325 27 -77 56 -158 64 -180 19 -49 22 -59 77 -215 l44 -125 74 0 74 0 294
885 c161 487 315 948 341 1025 26 77 136 408 245 735 109 327 211 621 228 653
67 129 148 190 290 221 26 6 27 9 27 71 l0 65 -483 0 -482 0 0 -65 c0 -36 2
-66 5 -66 3 -1 19 -2 35 -4 256 -22 331 -80 324 -248 -5 -109 -5 -110 -241
-832 -71 -220 -169 -519 -217 -665 -48 -146 -105 -320 -126 -387 -22 -68 -42
-123 -45 -123 -3 0 -38 102 -78 228 -72 225 -176 547 -297 922 -243 750 -265
825 -269 902 -4 71 23 123 75 150 47 24 160 48 230 48 33 0 61 5 66 13 5 6 9
37 8 67 l-2 55 -826 3 -827 2 0 -65 c0 -45 4 -65 13 -66 195 -20 276 -53 337
-136 33 -45 212 -523 211 -566 0 -16 -4 -34 -9 -40 -5 -7 -19 -41 -31 -77 -13
-36 -29 -78 -36 -95 -8 -16 -124 -320 -260 -675 -135 -355 -250 -654 -255
-665 -5 -11 -12 -31 -16 -44 -5 -18 -8 -21 -14 -10 -5 8 -58 167 -120 354 -62
187 -140 426 -175 530 -381 1152 -375 1134 -375 1206 0 78 31 137 87 167 26
15 146 41 203 45 l45 4 3 66 3 67 -781 0 -780 0 0 -68z"/>
</g>
</svg>
